<svg version="1.1" xmlns="http://www.w3.org/2000/svg" style="display: block;" viewBox="0 0 2048 2048" width="1024" height="1024" preserveAspectRatio="none">
<path transform="translate(0,0)" fill="rgb(51,68,77)" d="M 1010.15 160.428 C 1165.24 151.092 1254.98 353.223 1295.88 473.795 C 1301.54 490.464 1306.05 507.671 1311.8 524.404 C 1332.4 519.335 1353.12 514.756 1373.94 510.672 C 1374.76 521.964 1375.71 531.345 1378.28 542.357 C 1360.06 545.996 1337.5 550.855 1319.66 555.704 C 1339.93 635.112 1359.73 742.922 1365.05 825.33 C 1380.91 838.264 1403.26 852.794 1420.66 866.369 C 1473.11 907.298 1529.45 952.474 1575.92 1000.21 C 1649.28 924.315 1728.21 825.803 1754.25 721.233 C 1779.42 620.169 1724.29 557.036 1627.68 535.334 C 1630.35 523.105 1630.12 515.978 1629.99 503.272 C 1718.34 519.298 1793.3 579.212 1791.88 673.844 C 1789.94 802.703 1685.77 937.267 1599.76 1023.69 C 1689.25 1116.53 1813.57 1269.61 1787.82 1411.38 C 1780.79 1450.05 1750.12 1491.91 1716.08 1511.74 C 1597.31 1580.93 1436.69 1552.21 1310.94 1523.15 C 1304.95 1546.66 1297.04 1569.42 1289.34 1592.41 C 1278.17 1584.86 1271.75 1581.5 1259.28 1576.36 C 1266.13 1555.83 1272.68 1535.21 1278.92 1514.49 C 1193.47 1493.43 1103.7 1454.46 1022.8 1419.9 C 996.782 1429.67 965.633 1444.91 938.689 1455.7 C 882.273 1478.4 824.692 1498.09 766.188 1514.69 C 770.704 1533.26 777.238 1551.72 783.272 1569.83 C 803.012 1629.08 826.735 1680.8 858.441 1734.36 C 904.073 1802.95 970.92 1880.78 1064.65 1848.22 C 1094.18 1837.97 1115.76 1819.19 1137.67 1797.62 C 1148.76 1805.82 1153.96 1808.85 1166.57 1814.53 C 1054.87 1937.36 926.598 1894.34 842.794 1770.25 C 790.381 1692.65 758.764 1613.36 733.962 1523.32 C 666.879 1539.74 593.249 1552.79 524.175 1554.06 C 448.587 1555.46 356.654 1543.99 300.221 1489.1 C 269.041 1458.77 252.69 1416.45 252.822 1373.16 C 253.212 1246.31 361.451 1109.35 445.195 1023.93 C 431.382 1009.26 417.643 994.527 403.979 979.723 C 415.545 973.881 422.701 968.898 433.129 961.198 C 444.574 974.511 456.523 987.382 468.948 999.785 C 509.078 960.726 551.141 923.705 594.979 888.861 C 623.297 866.468 651.574 846.919 679.607 825.338 C 681.285 796.829 685.736 763.504 689.794 735.202 C 698.144 674.679 709.864 614.67 724.9 555.453 C 679.184 543.617 638.145 536.238 591.479 530.506 C 439.275 511.812 232.493 537.771 297.898 747.397 C 285.736 753.346 279.94 757.282 269.109 765.505 C 255.135 720.588 247.037 680.64 257.7 633.468 C 267.03 592.191 295.478 555.221 331.919 534.055 C 445.042 468.348 614.869 495.451 733.987 524.732 C 737.887 506.435 745.498 483.632 751.67 465.922 C 792.055 350.055 870.76 175.79 1010.15 160.428 z"/>
<path transform="translate(0,0)" fill="rgb(255,255,255)" d="M 1020.52 663.985 C 1025.54 663.304 1050.32 676.433 1056.04 679.277 C 1136.46 718.819 1214.32 763.376 1289.15 812.686 C 1298.24 818.701 1328.25 838.17 1334.51 844.433 C 1336.99 866.225 1338.27 893.14 1339.5 915.181 C 1344.62 1011.33 1343 1107.71 1334.66 1203.63 C 1238.33 1273.34 1130.07 1332.38 1023.35 1384.29 C 1015.73 1382.33 995.692 1371.4 987.435 1367.44 C 918.902 1334 852.3 1296.74 787.942 1255.83 C 764.489 1240.95 732.438 1220.4 710.221 1203.62 C 707.784 1185.82 705.783 1147.54 705.005 1129.48 C 701.092 1038.62 700.509 934.7 710.204 844.284 C 733.569 825.946 764.397 807.136 789.644 790.853 C 864.794 742.385 940.303 703.362 1020.52 663.985 z"/>
<path transform="translate(0,0)" fill="rgb(51,68,77)" d="M 1006.79 800.479 C 1130.25 791.839 1237.3 885.004 1245.79 1008.48 C 1254.28 1131.95 1160.99 1238.89 1037.5 1247.23 C 914.233 1255.55 807.518 1162.45 799.044 1039.19 C 790.569 915.932 883.538 809.104 1006.79 800.479 z"/>
<path transform="translate(0,0)" fill="rgb(255,255,255)" d="M 1005.49 832.614 C 1111.25 823.272 1204.52 901.556 1213.65 1007.34 C 1222.78 1113.12 1144.31 1206.23 1038.51 1215.15 C 933.003 1224.04 840.217 1145.84 831.112 1040.36 C 822.008 934.872 900.022 841.93 1005.49 832.614 z"/>
<path transform="translate(0,0)" fill="rgb(51,68,77)" d="M 1065.55 925.72 C 1082.95 925.882 1100.35 925.886 1117.75 925.731 C 1090.97 950.76 1062.21 981.383 1036.06 1007.68 C 1052.74 1029.81 1071.38 1059.35 1088.15 1083.03 C 1098.52 1098.65 1109.87 1114.07 1119.64 1130.03 C 1103.62 1130.22 1087.19 1129.97 1071.14 1129.92 C 1049.6 1100.5 1030.22 1064.84 1008.34 1035.94 C 997.498 1046.29 986.756 1056.75 976.112 1067.3 C 975.776 1088.2 975.845 1109.11 976.319 1130.01 L 936.039 1130.17 L 936.19 926.379 L 976.099 926.556 L 975.419 1019.71 C 1003.89 987.703 1037.27 957.438 1065.55 925.72 z"/>
<path transform="translate(0,0)" fill="rgb(255,255,255)" d="M 1575.85 1047.78 C 1577.18 1048.95 1579.35 1051.09 1580.65 1052.48 C 1658.2 1135.43 1757.1 1255.18 1759.82 1374.5 C 1760.59 1407.97 1745.43 1444.98 1721.22 1467.23 C 1664.74 1519.13 1578.52 1523.49 1506.4 1521.68 C 1438.62 1517.92 1385.26 1508.21 1319.62 1492.48 C 1341.97 1403.69 1357.21 1313.26 1365.21 1222.06 C 1441.01 1167.52 1509.1 1113.64 1575.85 1047.78 z"/>
<path transform="translate(0,0)" fill="rgb(255,255,255)" d="M 468.027 1048.53 C 471.345 1049.07 508.919 1085.77 514.259 1090.57 C 566.791 1137.61 622.069 1181.5 679.803 1221.99 C 680.488 1244.49 685.849 1284.28 689.019 1306.63 C 697.673 1367.63 709.214 1432.85 725.327 1492.4 C 673.449 1506.27 596.743 1519.24 543.964 1521.2 C 535.516 1521.9 525.112 1522.1 516.515 1522.12 C 455.69 1523.04 365.044 1511.91 321.402 1465.3 C 208.889 1345.13 387.128 1130 468.027 1048.53 z"/>
<path transform="translate(0,0)" fill="rgb(255,255,255)" d="M 1009.98 192.39 C 1033.51 188.971 1064.99 196.949 1085.2 208.633 C 1190.63 269.563 1246.27 425.686 1279.14 533.401 C 1206.6 551.823 1101.18 591.503 1033.58 623.101 L 1022.57 628.15 C 1017.15 626.236 1006.09 620.753 1000.27 618.138 C 986.469 611.941 972.587 605.928 958.627 600.1 C 906.389 578.341 820.457 546.181 766.21 533.747 C 768.203 522.519 772.934 508.687 776.522 497.779 C 810.951 393.122 884.72 209.369 1009.98 192.39 z"/>
<path transform="translate(0,0)" fill="rgb(255,255,255)" d="M 714.622 1246.25 C 735.897 1259.43 756.705 1274.34 778.593 1287.75 C 843.608 1327.58 915.308 1369.94 984.613 1401.55 C 966.651 1409.9 945.122 1418.61 926.825 1426.01 C 871.606 1448.45 815.167 1467.76 757.775 1483.84 C 739.653 1415.58 720.501 1316.46 714.622 1246.25 z"/>
<path transform="translate(0,0)" fill="rgb(255,255,255)" d="M 757.54 564.143 C 792.5 571.946 846.072 591.322 879.684 603.58 C 909.169 614.332 956.527 632.568 984.509 646.488 C 947.127 662.662 888.624 694.463 853.762 714.914 C 806.233 741.908 759.825 770.83 714.655 801.609 C 721.529 725.563 738.727 637.702 757.54 564.143 z"/>
<path transform="translate(0,0)" fill="rgb(255,255,255)" d="M 1329.01 1247.07 C 1331.13 1251.21 1326.52 1277.64 1325.67 1284.22 C 1316.81 1352.42 1304.35 1417.56 1287 1484.1 C 1230.53 1467.84 1174.92 1448.77 1120.36 1426.96 C 1101.36 1419.36 1078.47 1410.12 1060.16 1401.5 C 1089.86 1388.59 1124.77 1369.41 1153.56 1353.99 C 1214.31 1321.44 1271.52 1284.94 1329.01 1247.07 z"/>
<path transform="translate(0,0)" fill="rgb(255,255,255)" d="M 1286.81 564.258 C 1288.6 566.452 1292.98 586.195 1293.98 590.4 C 1310.52 660.061 1322.64 730.695 1330.28 801.881 C 1291.47 773.223 1234.28 740.127 1192.79 715.743 C 1155.04 694.666 1099.93 663.242 1060.34 646.268 C 1075.77 638.381 1100.89 628.762 1117.24 622.208 C 1172.62 599.687 1229.23 580.339 1286.81 564.258 z"/>
<path transform="translate(0,0)" fill="rgb(255,255,255)" d="M 674.98 869.122 C 676.242 871.396 672.37 931.664 672.055 940.418 C 669.162 1020.32 670.508 1100.31 676.089 1180.06 C 665.649 1170.63 644.512 1155.59 632.687 1146.47 C 614.29 1132.04 596.153 1117.29 578.286 1102.21 C 550.509 1078.59 518.013 1049.96 492.239 1023.68 C 549.858 966.704 610.533 917.819 674.98 869.122 z"/>
<path transform="translate(0,0)" fill="rgb(255,255,255)" d="M 1368.93 868.487 C 1377.38 873.662 1398.85 890.799 1407.7 897.603 C 1458.37 936.876 1506.75 979.014 1552.61 1023.81 C 1525.09 1050.45 1496.78 1076.25 1467.71 1101.18 C 1435.58 1128.34 1402.6 1154.46 1368.79 1179.5 C 1370 1145.54 1372.87 1112.03 1373.7 1077.25 C 1375.29 1007.62 1373.7 937.965 1368.93 868.487 z"/>
<path transform="translate(0,0)" fill="rgb(51,68,77)" d="M 341.664 768.388 C 394.535 763.546 441.278 802.58 445.942 855.467 C 450.605 908.354 411.413 954.966 358.511 959.45 C 305.861 963.914 259.519 924.949 254.878 872.314 C 250.237 819.679 289.045 773.206 341.664 768.388 z"/>
<path transform="translate(0,0)" fill="rgb(255,255,255)" d="M 341.251 800.607 C 376.393 795.539 408.932 820.075 413.725 855.255 C 418.517 890.435 393.726 922.781 358.51 927.297 C 323.683 931.763 291.771 907.305 287.032 872.514 C 282.292 837.723 306.498 805.62 341.251 800.607 z"/>
<path transform="translate(0,0)" fill="rgb(51,68,77)" d="M 1493.23 416.372 C 1545.94 411.316 1592.78 449.955 1597.83 502.67 C 1602.88 555.386 1564.23 602.214 1511.52 607.258 C 1458.81 612.301 1411.99 573.665 1406.94 520.958 C 1401.89 468.25 1440.52 421.428 1493.23 416.372 z"/>
<path transform="translate(0,0)" fill="rgb(255,255,255)" d="M 1493.25 448.553 C 1528.41 443.461 1560.98 468.003 1565.77 503.203 C 1570.57 538.404 1545.76 570.768 1510.52 575.273 C 1475.69 579.725 1443.79 555.266 1439.05 520.479 C 1434.31 485.691 1458.5 453.586 1493.25 448.553 z"/>
<path transform="translate(0,0)" fill="rgb(51,68,77)" d="M 1206.45 1600.28 C 1259.18 1595.9 1305.48 1635.07 1309.92 1687.8 C 1314.35 1740.52 1275.23 1786.87 1222.51 1791.36 C 1169.71 1795.86 1123.28 1756.67 1118.84 1703.86 C 1114.4 1651.05 1153.64 1604.66 1206.45 1600.28 z"/>
<path transform="translate(0,0)" fill="rgb(255,255,255)" d="M 1204.61 1632.64 C 1239.65 1627.19 1272.42 1651.3 1277.67 1686.37 C 1282.91 1721.44 1258.61 1754.08 1223.51 1759.11 C 1188.7 1764.11 1156.39 1740.06 1151.19 1705.28 C 1145.99 1670.49 1169.86 1638.04 1204.61 1632.64 z"/>
</svg>